<svg width="160" height="23" viewBox="0 0 160 23" fill="none" xmlns="http://www.w3.org/2000/svg">
<path d="M151.664 15.8636C151.443 15.8636 151.332 15.7924 151.332 15.6499C151.332 15.634 151.348 15.5786 151.38 15.4836C152.124 14.0588 153.002 12.0244 154.016 9.3805C154.126 9.09553 154.316 8.85013 154.585 8.64432C154.855 8.42268 155.084 8.31185 155.274 8.31185C155.48 8.31185 155.567 8.42268 155.535 8.64432C155.377 8.97679 155.187 9.40425 154.965 9.92669C154.744 10.4491 154.483 11.0587 154.182 11.7553C154.625 11.1695 155.282 10.5125 156.153 9.78421C156.596 9.42008 156.976 9.11927 157.293 8.8818C157.625 8.64432 157.902 8.47017 158.124 8.35935C158.345 8.24853 158.591 8.19312 158.86 8.19312C159.177 8.19312 159.446 8.27227 159.667 8.43059C159.889 8.58891 160 8.77097 160 8.97679C160 9.10344 159.937 9.24593 159.81 9.40425C159.699 9.54673 159.58 9.61797 159.454 9.61797C159.39 9.61797 159.256 9.55465 159.05 9.42799C158.86 9.28551 158.654 9.21426 158.433 9.21426C158.195 9.21426 157.918 9.28551 157.601 9.42799C155.591 10.3304 153.857 12.3648 152.401 15.5311C152.306 15.7528 152.06 15.8636 151.664 15.8636Z" fill="black"/>
<path d="M147.676 15.7683C147.217 15.7683 146.813 15.6575 146.465 15.4359C146.006 15.1192 145.776 14.6601 145.776 14.0585C145.776 13.4094 146.053 12.6178 146.608 11.6837C147.352 10.4647 148.444 9.39604 149.885 8.4778C150.249 8.24032 150.613 8.12158 150.977 8.12158C151.452 8.12158 151.792 8.27198 151.998 8.57279C152.125 8.74694 152.188 8.94483 152.188 9.16648C152.188 9.83141 151.65 10.5597 150.573 11.3513C150.257 11.5729 149.916 11.7787 149.552 11.9687C149.204 12.1429 148.824 12.2695 148.412 12.3487L147.391 12.5624C147.011 13.2432 146.821 13.8131 146.821 14.2722C146.821 14.9055 147.193 15.2221 147.937 15.2221C148.523 15.2221 149.236 14.9767 150.075 14.486C151.199 13.8368 152.164 12.9344 152.972 11.7787C153.099 11.5887 153.217 11.4937 153.328 11.4937C153.376 11.4937 153.399 11.5254 153.399 11.5887C153.399 11.6679 153.344 11.7866 153.233 11.945C151.697 14.2564 149.964 15.5229 148.032 15.7446C147.969 15.7604 147.906 15.7683 147.842 15.7683C147.795 15.7683 147.74 15.7683 147.676 15.7683ZM147.676 12.1587C148.119 12.1587 148.689 11.9608 149.386 11.565C150.368 11.0109 151.056 10.2985 151.452 9.4277C151.563 9.20606 151.618 9.02399 151.618 8.88151C151.618 8.73902 151.563 8.66778 151.452 8.66778C151.246 8.66778 150.827 8.92109 150.193 9.4277C149.734 9.8235 149.283 10.251 148.84 10.7101C148.412 11.1534 148.001 11.6283 147.605 12.1349C147.589 12.1508 147.613 12.1587 147.676 12.1587Z" fill="black"/>
<path d="M136.852 22.8927C136.25 22.8927 135.949 22.5919 135.949 21.9903C135.949 21.4995 136.163 20.9138 136.59 20.233C136.86 19.8055 137.2 19.3464 137.612 18.8556C138.039 18.3807 138.546 17.8741 139.131 17.3358C140.176 16.3226 141.285 15.4439 142.456 14.6998C142.599 14.3515 142.757 13.924 142.931 13.4174C143.105 12.9108 143.303 12.3092 143.525 11.6126C143.477 11.7234 143.303 11.953 143.002 12.3013C142.717 12.6338 142.298 13.1008 141.744 13.7024C140.414 15.1748 139.472 15.8397 138.918 15.6972C138.063 15.4756 137.635 15.0006 137.635 14.2723C137.635 13.5599 138.055 12.6258 138.894 11.4701C139.131 11.1535 139.424 10.8368 139.773 10.5202C140.121 10.2036 140.517 9.89486 140.96 9.59406C142.084 8.8183 143.145 8.43042 144.142 8.43042C144.76 8.43042 145.322 8.58874 145.828 8.90537C145.971 9.00036 146.042 9.1191 146.042 9.26159C146.042 9.40407 146.01 9.47532 145.947 9.47532C145.931 9.47532 145.915 9.4674 145.899 9.45157C145.583 9.08744 145.147 8.90537 144.593 8.90537C143.944 8.90537 143.216 9.15077 142.409 9.64155C141.601 10.1323 140.857 10.7894 140.176 11.6126C139.116 12.9108 138.585 13.924 138.585 14.6523C138.585 14.9848 138.712 15.2064 138.965 15.3172C139.313 15.4597 140.192 14.7552 141.601 13.2037C142.155 12.5863 142.63 12.0321 143.026 11.5414C143.438 11.0506 143.762 10.631 144 10.2827C144.11 10.1244 144.269 10.0453 144.475 10.0453C144.855 10.0453 145.045 10.1877 145.045 10.4727C145.045 10.536 145.021 10.6073 144.973 10.6864C144.862 11.0031 144.712 11.4305 144.522 11.9688C144.332 12.4913 144.103 13.1245 143.833 13.8686C144.34 13.5678 144.744 13.4174 145.045 13.4174C145.171 13.4174 145.235 13.4491 145.235 13.5124C145.235 13.6707 145.037 13.8211 144.641 13.9636C144.483 14.0269 144.308 14.0982 144.118 14.1774C143.944 14.2565 143.754 14.3515 143.548 14.4623C142.44 17.2171 141.102 19.4889 139.535 21.2779C138.585 22.3545 137.691 22.8927 136.852 22.8927ZM137.35 22.394C137.651 22.394 138.015 22.1486 138.443 21.6579C139.852 20.0747 141.087 18.0007 142.147 15.436C140.042 17.0033 138.474 18.634 137.445 20.328C137.097 20.8821 136.923 21.3729 136.923 21.8003C136.923 22.1961 137.065 22.394 137.35 22.394Z" fill="black"/>
<path d="M134.36 15.8159C134.011 15.8475 133.679 15.7605 133.362 15.5546C133.046 15.333 132.887 15.0876 132.887 14.8185C132.887 14.3277 133.354 13.3857 134.288 11.9925C135.317 10.4568 135.832 9.57024 135.832 9.33277C135.832 9.19028 135.761 9.11112 135.618 9.09529C135.159 9.12695 134.447 9.58607 133.481 10.4727C132.104 11.755 130.813 13.4965 129.61 15.6971C129.578 15.7288 129.491 15.7446 129.349 15.7446C128.668 15.7446 128.359 15.6496 128.423 15.4597C128.597 15.0005 128.898 14.3119 129.325 13.3936C129.768 12.4754 130.338 11.3197 131.035 9.92646C131.51 8.99238 131.993 8.52535 132.483 8.52535C132.642 8.52535 132.745 8.56492 132.792 8.64408C132.824 8.69158 132.491 9.37234 131.795 10.6864C131.462 11.3197 131.201 11.8263 131.011 12.2062C130.821 12.5704 130.687 12.8078 130.607 12.9187C130.877 12.6495 131.193 12.3171 131.557 11.9213C131.937 11.5255 132.373 11.0663 132.863 10.5439C133.639 9.67315 134.494 9.02405 135.428 8.59659C135.65 8.5016 135.903 8.4541 136.188 8.4541C136.837 8.4541 137.162 8.69158 137.162 9.16653C137.162 9.46733 137.011 9.82355 136.711 10.2352C135.001 12.6258 134.146 14.2327 134.146 15.0559C134.146 15.2301 134.201 15.3409 134.312 15.3884C134.565 15.4992 135.191 15.238 136.188 14.6047C137.36 13.8448 138.357 12.9028 139.18 11.7788C139.354 11.5413 139.513 11.4226 139.655 11.4226C139.703 11.4226 139.727 11.4384 139.727 11.4701C139.727 11.5492 139.655 11.6996 139.513 11.9213C138.816 13.0136 137.85 13.9794 136.616 14.8185C135.507 15.5467 134.755 15.8792 134.36 15.8159Z" fill="black"/>
<path d="M128.576 7.24312C128.323 7.27478 128.046 7.24312 127.745 7.14813C127.46 7.05314 127.318 6.9344 127.318 6.79192C127.318 6.69692 127.349 6.60193 127.413 6.50694C127.476 6.39612 127.555 6.2853 127.65 6.17448C127.919 5.84201 128.078 5.6362 128.125 5.55704C128.173 5.46205 128.26 5.41455 128.386 5.41455C128.75 5.41455 129.035 5.5887 129.241 5.937C129.257 5.95283 129.265 5.98449 129.265 6.03199C129.265 6.17448 129.186 6.38029 129.027 6.64943C128.822 7.02939 128.671 7.22729 128.576 7.24312ZM124.99 15.816C124.072 15.6102 123.613 15.2461 123.613 14.7236C123.613 14.4703 123.922 13.5758 124.539 12.0401C124.713 11.7393 124.943 11.304 125.228 10.734C125.529 10.1482 125.901 9.43582 126.344 8.59674C126.423 8.47008 126.597 8.40676 126.866 8.40676C127.104 8.40676 127.333 8.44633 127.555 8.52549C127.793 8.58882 127.888 8.65215 127.84 8.71548C125.75 11.676 124.705 13.7262 124.705 14.8661C124.705 15.1986 124.816 15.3648 125.038 15.3648C125.465 15.3648 126.138 15.064 127.056 14.4624C128.149 13.7183 129.067 12.8238 129.811 11.7789C129.969 11.5256 130.128 11.399 130.286 11.399C130.334 11.399 130.357 11.4227 130.357 11.4702C130.357 11.5494 130.286 11.6998 130.144 11.9214C129.447 13.0138 128.481 13.9795 127.246 14.8186C126.138 15.5785 125.386 15.911 124.99 15.816Z" fill="black"/>
<path d="M119.646 15.6975C119.536 15.6975 119.417 15.6896 119.29 15.6737C119.179 15.6737 119.061 15.6737 118.934 15.6737C118.427 15.6896 117.85 15.6817 117.2 15.65C116.567 15.6342 115.855 15.6025 115.063 15.555C114.873 15.5233 114.723 15.3809 114.612 15.1275C114.517 14.9534 114.469 14.8267 114.469 14.7476C114.77 14.3676 115.277 13.8848 115.989 13.299C116.702 12.6974 117.628 12.0008 118.768 11.2092C120.636 9.87932 121.467 9.20647 121.261 9.19064C121.087 9.1748 120.913 9.16689 120.739 9.16689C120.581 9.15106 120.422 9.14314 120.264 9.14314C119.251 9.14314 118.467 9.29354 117.913 9.59435C117.438 9.84765 117.129 9.97431 116.987 9.97431C116.797 9.97431 116.702 9.8714 116.702 9.66559C116.702 9.50727 116.773 9.32521 116.915 9.11939C117.074 8.89775 117.232 8.77109 117.39 8.73943C117.865 8.61278 118.657 8.54153 119.765 8.5257C119.955 8.5257 120.137 8.5257 120.311 8.5257C120.486 8.50987 120.652 8.50195 120.81 8.50195C121.348 8.50195 121.768 8.5257 122.069 8.5732C122.211 8.60486 122.362 8.74735 122.52 9.00065C122.71 9.25396 122.805 9.46769 122.805 9.64184C122.805 9.70517 122.789 9.75266 122.757 9.78433C121.997 10.2751 121.34 10.7105 120.786 11.0904C120.232 11.4546 119.773 11.7633 119.409 12.0166C117.857 13.0932 116.607 14.0589 115.657 14.9138C115.625 14.9771 115.894 15.0405 116.464 15.1038C117.113 15.1988 117.755 15.2463 118.388 15.2463C119.243 15.2463 119.931 15.1671 120.454 15.0088C121.546 14.6922 122.164 14.2726 122.306 13.7502C122.338 13.6552 122.385 13.6077 122.449 13.6077C122.686 13.6077 122.805 13.8373 122.805 14.2964C122.805 14.5814 122.694 14.8347 122.472 15.0563C122.077 15.4838 121.135 15.6975 119.646 15.6975Z" fill="black"/>
<path d="M107.949 15.8636C107.728 15.8636 107.617 15.7924 107.617 15.6499C107.617 15.634 107.633 15.5786 107.664 15.4836C108.409 14.0588 109.287 12.0244 110.3 9.3805C110.411 9.09553 110.601 8.85013 110.87 8.64432C111.14 8.42268 111.369 8.31185 111.559 8.31185C111.765 8.31185 111.852 8.42268 111.82 8.64432C111.662 8.97679 111.472 9.40425 111.25 9.92669C111.029 10.4491 110.767 11.0587 110.467 11.7553C110.91 11.1695 111.567 10.5125 112.438 9.78421C112.881 9.42008 113.261 9.11927 113.578 8.8818C113.91 8.64432 114.187 8.47017 114.409 8.35935C114.63 8.24853 114.876 8.19312 115.145 8.19312C115.462 8.19312 115.731 8.27227 115.952 8.43059C116.174 8.58891 116.285 8.77097 116.285 8.97679C116.285 9.10344 116.221 9.24593 116.095 9.40425C115.984 9.54673 115.865 9.61797 115.739 9.61797C115.675 9.61797 115.541 9.55465 115.335 9.42799C115.145 9.28551 114.939 9.21426 114.717 9.21426C114.48 9.21426 114.203 9.28551 113.886 9.42799C111.876 10.3304 110.142 12.3648 108.686 15.5311C108.591 15.7528 108.345 15.8636 107.949 15.8636Z" fill="black"/>
<path d="M103.961 15.7683C103.502 15.7683 103.098 15.6575 102.75 15.4359C102.291 15.1192 102.061 14.6601 102.061 14.0585C102.061 13.4094 102.338 12.6178 102.892 11.6837C103.637 10.4647 104.729 9.39604 106.17 8.4778C106.534 8.24032 106.898 8.12158 107.262 8.12158C107.737 8.12158 108.077 8.27198 108.283 8.57279C108.41 8.74694 108.473 8.94483 108.473 9.16648C108.473 9.83141 107.935 10.5597 106.858 11.3513C106.542 11.5729 106.201 11.7787 105.837 11.9687C105.489 12.1429 105.109 12.2695 104.697 12.3487L103.676 12.5624C103.296 13.2432 103.106 13.8131 103.106 14.2722C103.106 14.9055 103.478 15.2221 104.222 15.2221C104.808 15.2221 105.521 14.9767 106.36 14.486C107.484 13.8368 108.449 12.9344 109.257 11.7787C109.383 11.5887 109.502 11.4937 109.613 11.4937C109.661 11.4937 109.684 11.5254 109.684 11.5887C109.684 11.6679 109.629 11.7866 109.518 11.945C107.982 14.2564 106.249 15.5229 104.317 15.7446C104.254 15.7604 104.191 15.7683 104.127 15.7683C104.08 15.7683 104.024 15.7683 103.961 15.7683ZM103.961 12.1587C104.404 12.1587 104.974 11.9608 105.671 11.565C106.652 11.0109 107.341 10.2985 107.737 9.4277C107.848 9.20606 107.903 9.02399 107.903 8.88151C107.903 8.73902 107.848 8.66778 107.737 8.66778C107.531 8.66778 107.112 8.92109 106.478 9.4277C106.019 9.8235 105.568 10.251 105.125 10.7101C104.697 11.1534 104.286 11.6283 103.89 12.1349C103.874 12.1508 103.898 12.1587 103.961 12.1587Z" fill="black"/>
<path d="M99.1257 15.9825C97.9066 15.7134 97.2971 15.1592 97.2971 14.3202C97.2971 14.0827 97.3367 13.8056 97.4159 13.489C97.495 13.1565 97.6217 12.7924 97.7958 12.3966L99.8144 7.8608C99.5769 7.89247 99.3157 7.92413 99.0307 7.95579C98.7457 7.98746 98.4291 8.01912 98.0808 8.05079C98.0175 8.05079 97.9858 7.99537 97.9858 7.88455C97.9858 7.66291 98.0254 7.53625 98.1045 7.50459L100.099 7.21962L101.643 4.08493C101.785 3.79996 102.229 3.65747 102.973 3.65747C103.321 3.65747 103.471 3.69705 103.424 3.77621C103.076 4.33032 102.719 4.89235 102.355 5.46229C102.007 6.0164 101.659 6.57051 101.31 7.12463C101.358 7.10879 101.461 7.09296 101.619 7.07713C101.777 7.0613 101.983 7.04547 102.237 7.02964C102.427 7.0138 102.609 7.00589 102.783 7.00589C102.957 6.99006 103.123 6.98214 103.282 6.98214C103.946 6.98214 104.263 7.0138 104.231 7.07713C104.121 7.18795 103.044 7.40168 101.002 7.71832C99.2761 10.9797 98.4133 13.2832 98.4133 14.6289C98.4133 15.1197 98.5557 15.4126 98.8407 15.5075C99.0624 15.5709 99.6244 15.278 100.527 14.6289C101.049 14.2489 101.524 13.8373 101.952 13.394C102.379 12.9349 102.767 12.452 103.115 11.9454C103.226 11.7871 103.329 11.7079 103.424 11.7079C103.487 11.7079 103.519 11.7396 103.519 11.8029C103.519 11.8662 103.479 11.9612 103.4 12.0879C102.799 13.0536 101.999 13.9639 101.002 14.8189C100.036 15.6579 99.4107 16.0458 99.1257 15.9825Z" fill="black"/>
<path d="M85.1373 17.4785C83.5383 17.4785 82.4301 17.1144 81.8127 16.3861C81.4802 16.0062 81.314 15.5787 81.314 15.1038C81.314 13.9639 82.1689 12.7211 83.8787 11.3754C84.4328 10.9321 84.9632 10.7104 85.4698 10.7104C85.5964 10.7104 85.6598 10.7342 85.6598 10.7817C85.6598 10.8925 85.4619 11.0271 85.0661 11.1854C84.3853 11.4704 83.7995 11.9928 83.3088 12.7527C82.8021 13.5285 82.5488 14.2647 82.5488 14.9613C82.5488 16.2436 83.5621 16.8848 85.5885 16.8848C86.8392 16.8848 87.9475 16.6949 88.9132 16.3149C91.0347 15.4916 92.7287 14.423 93.9952 13.109C95.1034 11.9849 95.6575 10.9083 95.6575 9.87928C95.6575 8.62857 94.8976 8.00321 93.3778 8.00321C90.9713 8.00321 89.1823 7.70241 88.0108 7.1008C87.0451 6.61002 86.5622 5.96092 86.5622 5.1535C86.5622 3.7603 87.615 2.60458 89.7206 1.68634C91.4305 0.910583 93.0611 0.522705 94.6126 0.522705C95.8792 0.522705 96.8766 0.783929 97.6048 1.30638C97.7948 1.4172 97.8898 1.57552 97.8898 1.78133C97.8898 2.08213 97.6998 2.39085 97.3199 2.70749C96.9557 3.02412 96.6866 3.16661 96.5124 3.13495C96.4808 3.13495 96.5362 3.03204 96.6787 2.82623C96.8845 2.57292 96.9874 2.34336 96.9874 2.13754C96.9874 1.94756 96.9161 1.78133 96.7737 1.63884C96.3462 1.17972 95.5625 0.950161 94.4226 0.950161C93.1561 0.950161 91.8579 1.22722 90.528 1.78133C89.1348 2.38294 88.2879 3.08745 87.987 3.89487C87.8287 4.3065 87.7496 4.67854 87.7496 5.01101C87.7496 6.42004 89.7206 7.12455 93.6627 7.12455C96.0375 7.12455 97.2249 7.83698 97.2249 9.26184C97.2249 10.4651 96.457 11.8345 94.9213 13.3702C93.354 14.9059 91.66 15.9903 89.8394 16.6236C88.2087 17.1936 86.6413 17.4785 85.1373 17.4785Z" fill="black"/>
<path d="M73.7435 15.8397C73.4269 15.8397 73.134 15.7368 72.8649 15.531C72.6116 15.3252 72.4612 15.1273 72.4137 14.9373C72.3662 14.7156 72.6591 13.924 73.2923 12.5625L72.7461 13.3462C72.5087 13.6945 72.2712 14.0032 72.0337 14.2723C71.7962 14.5415 71.5746 14.779 71.3688 14.9848C70.7672 15.5547 70.2605 15.7922 69.8489 15.6972C68.899 15.4756 68.4241 14.9373 68.4241 14.0824C68.4241 13.4016 68.7486 12.5308 69.3977 11.4701C69.6035 11.1535 69.8648 10.8368 70.1814 10.5202C70.498 10.2036 70.8622 9.89486 71.2738 9.59406C72.3345 8.8183 73.3557 8.43042 74.3372 8.43042C74.9388 8.43042 75.5088 8.58874 76.0471 8.90537C76.2212 9.03203 76.3083 9.1666 76.3083 9.30908C76.3083 9.41991 76.2766 9.47532 76.2133 9.47532C76.1975 9.47532 76.1816 9.4674 76.1658 9.45157C75.8333 9.08744 75.39 8.90537 74.8359 8.90537C74.1868 8.90537 73.4823 9.15077 72.7224 9.64155C71.9625 10.1323 71.2817 10.7894 70.6801 11.6126C69.8252 12.8 69.3977 13.7657 69.3977 14.5098C69.3977 14.9373 69.5481 15.2064 69.8489 15.3172C70.2289 15.4756 71.0363 14.771 72.2712 13.2037C72.7778 12.5863 73.1973 12.0321 73.5298 11.5414C73.8781 11.0506 74.1552 10.631 74.361 10.2827C74.456 10.1086 74.6301 10.0215 74.8834 10.0215C75.3584 10.0215 75.5959 10.164 75.5959 10.449C75.5959 10.4965 75.5879 10.5281 75.5721 10.544C74.1947 12.7287 73.5061 14.209 73.5061 14.9848C73.5061 15.1748 73.5615 15.2777 73.6723 15.2935C74.0048 15.3885 74.5589 15.1431 75.3346 14.5573C76.2687 13.8607 77.1474 12.9346 77.9706 11.7788C78.1448 11.5414 78.3031 11.4226 78.4456 11.4226C78.4931 11.4226 78.5168 11.4385 78.5168 11.4701C78.5168 11.5493 78.4456 11.6997 78.3031 11.9213C77.9706 12.4438 77.5986 12.9346 77.1869 13.3937C76.7911 13.8528 76.3479 14.2803 75.8571 14.6761C75.1605 15.2618 74.5905 15.626 74.1472 15.7684C74.0364 15.8159 73.9019 15.8397 73.7435 15.8397Z" fill="black"/>
<path d="M65.2627 16.0297C64.1387 15.7922 63.5767 15.2698 63.5767 14.4624C63.5767 13.9874 63.7271 13.2987 64.0279 12.3963C64.2495 11.7156 64.5503 10.9398 64.9303 10.0691C65.3261 9.18247 65.8169 8.2009 66.4026 7.12434C67.8117 4.48044 68.8803 3.10308 69.6086 2.99225C69.6719 2.97642 69.7748 2.96851 69.9173 2.96851C70.693 2.96851 71.0809 3.33264 71.0809 4.0609C71.0809 5.0583 70.2418 6.47524 68.5637 8.31173C67.6296 9.35662 66.6005 10.2828 65.4765 11.0902C64.8115 12.6734 64.4791 13.837 64.4791 14.5811C64.4791 15.0719 64.6295 15.3648 64.9303 15.4598C65.1678 15.5231 65.7219 15.2381 66.5926 14.6049C67.59 13.8766 68.4449 12.99 69.1573 11.9451C69.2682 11.7868 69.3711 11.7076 69.4661 11.7076C69.5294 11.7076 69.5611 11.7393 69.5611 11.8026C69.5611 11.866 69.5215 11.9609 69.4423 12.0876C68.8407 13.0533 68.057 13.9716 67.0913 14.8423C66.1572 15.6972 65.5477 16.093 65.2627 16.0297ZM65.7377 10.449C66.3076 10.0216 66.7826 9.5941 67.1626 9.16664L68.5637 7.50431C69.8619 5.96863 70.511 4.83665 70.511 4.10839C70.511 3.96591 70.4318 3.89466 70.2735 3.89466C70.0043 3.89466 69.5769 4.28254 68.9911 5.0583C68.817 5.31161 68.6349 5.557 68.4449 5.79448C68.2549 6.03195 68.065 6.27735 67.875 6.53065C67.6375 6.87895 67.4159 7.21933 67.21 7.5518C67.0201 7.88427 66.838 8.22465 66.6639 8.57295C66.6164 8.63628 66.5134 8.82626 66.3551 9.14289C66.2126 9.45953 66.0068 9.8949 65.7377 10.449Z" fill="black"/>
<path d="M58.9474 15.7683C58.4883 15.7683 58.0846 15.6575 57.7363 15.4359C57.2772 15.1192 57.0476 14.6601 57.0476 14.0585C57.0476 13.4094 57.3247 12.6178 57.8788 11.6837C58.6229 10.4647 59.7153 9.39604 61.1559 8.4778C61.5201 8.24032 61.8842 8.12158 62.2483 8.12158C62.7233 8.12158 63.0637 8.27198 63.2695 8.57279C63.3961 8.74694 63.4595 8.94483 63.4595 9.16648C63.4595 9.83141 62.9212 10.5597 61.8446 11.3513C61.528 11.5729 61.1876 11.7787 60.8235 11.9687C60.4752 12.1429 60.0952 12.2695 59.6836 12.3487L58.6624 12.5624C58.2825 13.2432 58.0925 13.8131 58.0925 14.2722C58.0925 14.9055 58.4645 15.2221 59.2086 15.2221C59.7944 15.2221 60.5068 14.9767 61.3459 14.486C62.47 13.8368 63.4357 12.9344 64.2431 11.7787C64.3698 11.5887 64.4885 11.4937 64.5993 11.4937C64.6468 11.4937 64.6706 11.5254 64.6706 11.5887C64.6706 11.6679 64.6152 11.7866 64.5044 11.945C62.9687 14.2564 61.2351 15.5229 59.3036 15.7446C59.2403 15.7604 59.177 15.7683 59.1136 15.7683C59.0662 15.7683 59.0107 15.7683 58.9474 15.7683ZM58.9474 12.1587C59.3907 12.1587 59.9606 11.9608 60.6572 11.565C61.6388 11.0109 62.3275 10.2985 62.7233 9.4277C62.8341 9.20606 62.8895 9.02399 62.8895 8.88151C62.8895 8.73902 62.8341 8.66778 62.7233 8.66778C62.5175 8.66778 62.0979 8.92109 61.4647 9.4277C61.0055 9.8235 60.5543 10.251 60.111 10.7101C59.6836 11.1534 59.272 11.6283 58.8762 12.1349C58.8603 12.1508 58.8841 12.1587 58.9474 12.1587Z" fill="black"/>
<path d="M54.379 15.8397C54.0624 15.8397 53.7695 15.7368 53.5004 15.531C53.2471 15.3252 53.0967 15.1273 53.0492 14.9373C53.0017 14.7156 53.2946 13.924 53.9278 12.5625L53.3816 13.3462C53.1442 13.6945 52.9067 14.0032 52.6692 14.2723C52.4317 14.5415 52.2101 14.779 52.0043 14.9848C51.4027 15.5547 50.8961 15.7922 50.4844 15.6972C49.5345 15.4756 49.0596 14.9373 49.0596 14.0824C49.0596 13.4016 49.3841 12.5308 50.0332 11.4701C50.239 11.1535 50.5003 10.8368 50.8169 10.5202C51.1335 10.2036 51.4977 9.89486 51.9093 9.59406C52.97 8.8183 53.9912 8.43042 54.9727 8.43042C55.5743 8.43042 56.1443 8.58874 56.6826 8.90537C56.8567 9.03203 56.9438 9.1666 56.9438 9.30908C56.9438 9.41991 56.9121 9.47532 56.8488 9.47532C56.833 9.47532 56.8171 9.4674 56.8013 9.45157C56.4688 9.08744 56.0255 8.90537 55.4714 8.90537C54.8223 8.90537 54.1178 9.15077 53.3579 9.64155C52.598 10.1323 51.9172 10.7894 51.3156 11.6126C50.4607 12.8 50.0332 13.7657 50.0332 14.5098C50.0332 14.9373 50.1836 15.2064 50.4844 15.3172C50.8644 15.4756 51.6718 14.771 52.9067 13.2037C53.4133 12.5863 53.8328 12.0321 54.1653 11.5414C54.5136 11.0506 54.7907 10.631 54.9965 10.2827C55.0915 10.1086 55.2656 10.0215 55.5189 10.0215C55.9939 10.0215 56.2313 10.164 56.2313 10.449C56.2313 10.4965 56.2234 10.5281 56.2076 10.544C54.8302 12.7287 54.1416 14.209 54.1416 14.9848C54.1416 15.1748 54.197 15.2777 54.3078 15.2935C54.6403 15.3885 55.1944 15.1431 55.9701 14.5573C56.9042 13.8607 57.7829 12.9346 58.6061 11.7788C58.7803 11.5414 58.9386 11.4226 59.0811 11.4226C59.1286 11.4226 59.1523 11.4385 59.1523 11.4701C59.1523 11.5493 59.0811 11.6997 58.9386 11.9213C58.6061 12.4438 58.2341 12.9346 57.8224 13.3937C57.4266 13.8528 56.9834 14.2803 56.4926 14.6761C55.796 15.2618 55.226 15.626 54.7827 15.7684C54.6719 15.8159 54.5374 15.8397 54.379 15.8397Z" fill="black"/>
<path d="M44.9815 15.8161C44.6332 15.8478 44.3007 15.7607 43.9841 15.5549C43.6674 15.3332 43.5091 15.0878 43.5091 14.8187C43.5091 14.3279 43.9761 13.3859 44.9102 11.9927C45.9393 10.4412 46.4538 9.54673 46.4538 9.30925C46.4538 9.16677 46.3747 9.09552 46.2163 9.09552C45.8047 9.09552 45.0131 9.70505 43.8416 10.9241C43.145 11.6207 42.488 12.3727 41.8705 13.1801C41.2689 13.9717 40.699 14.8108 40.1607 15.6974C40.129 15.729 40.042 15.7449 39.8995 15.7449C39.2029 15.7449 38.8862 15.6499 38.9496 15.4599C39.2187 14.7316 39.5591 13.9163 39.9707 13.0139C40.3823 12.1115 40.8731 11.1062 41.4431 9.99794C43.327 6.35663 44.6094 4.27475 45.2902 3.7523C45.4802 3.60982 45.7414 3.53857 46.0739 3.53857C46.628 3.53857 46.905 3.6494 46.905 3.87104C46.905 3.91854 46.8575 3.98186 46.7625 4.06102C44.6886 5.5967 42.8521 8.486 41.2531 12.7289C41.2689 12.7131 41.3481 12.6418 41.4906 12.5152C41.6489 12.3727 41.8705 12.1669 42.1555 11.8977C42.4563 11.6286 42.7096 11.3832 42.9154 11.1616C43.1371 10.9241 43.327 10.7183 43.4854 10.5441C44.2611 9.67338 45.116 9.02428 46.0501 8.59682C46.2717 8.50183 46.5251 8.45434 46.81 8.45434C47.4591 8.45434 47.7837 8.69181 47.7837 9.16677C47.7837 9.46757 47.6333 9.82379 47.3325 10.2354C45.6226 12.626 44.7677 14.2329 44.7677 15.0562C44.7677 15.2303 44.8231 15.3412 44.934 15.3887C45.1873 15.4995 45.8126 15.2382 46.81 14.605C47.9816 13.8451 48.979 12.9031 49.8022 11.779C49.9764 11.5415 50.1347 11.4228 50.2772 11.4228C50.3247 11.4228 50.3484 11.4386 50.3484 11.4703C50.3484 11.5494 50.2772 11.6998 50.1347 11.9215C49.4381 13.0139 48.4724 13.9796 47.2375 14.8187C46.1293 15.547 45.3773 15.8794 44.9815 15.8161Z" fill="black"/>
<path d="M35.4056 15.7685C35.0731 15.7685 34.7328 15.6894 34.3845 15.5311C34.052 15.3728 33.767 15.1353 33.5296 14.8186C33.2921 14.4862 33.1733 14.0904 33.1733 13.6313C33.1733 12.998 33.4108 12.2776 33.8858 11.4702C34.3607 10.6628 34.9861 9.95038 35.7618 9.33294C36.2526 8.93714 36.6642 8.668 36.9967 8.52552C37.4717 8.3197 37.9229 8.2168 38.3503 8.2168C38.8886 8.2168 39.3081 8.39095 39.6089 8.73924C39.7673 8.89756 39.8464 9.0638 39.8464 9.23795C39.8464 9.52292 39.7118 9.6654 39.4427 9.6654C39.2527 9.6654 39.1102 9.54666 39.0153 9.30919C38.9044 8.97672 38.667 8.81049 38.3028 8.81049C37.8595 8.81049 37.3608 9.05588 36.8067 9.54666C36.1893 10.0374 35.6273 10.7103 35.1206 11.5652C34.5665 12.4835 34.2895 13.2909 34.2895 13.9875C34.2895 14.6682 34.4953 15.0957 34.9069 15.2698C35.0494 15.3332 35.2315 15.3648 35.4531 15.3648C36.213 15.3648 37.0759 15.0482 38.0416 14.4149C39.1023 13.7342 40.0127 12.8555 40.7726 11.7789C40.9467 11.5415 41.105 11.4227 41.2475 11.4227C41.295 11.4227 41.3188 11.4386 41.3188 11.4702C41.3188 11.5494 41.2475 11.6998 41.105 11.9214C40.3768 13.0455 39.3556 14.0112 38.0416 14.8186C37.44 15.1828 36.9571 15.4361 36.593 15.5786C36.2447 15.7052 35.8489 15.7685 35.4056 15.7685Z" fill="black"/>
<path d="M32.496 7.24312C32.2427 7.27478 31.9656 7.24312 31.6648 7.14813C31.3798 7.05314 31.2373 6.9344 31.2373 6.79192C31.2373 6.69692 31.269 6.60193 31.3323 6.50694C31.3957 6.39612 31.4748 6.2853 31.5698 6.17448C31.8389 5.84201 31.9973 5.6362 32.0448 5.55704C32.0923 5.46205 32.1793 5.41455 32.306 5.41455C32.6701 5.41455 32.9551 5.5887 33.1609 5.937C33.1767 5.95283 33.1846 5.98449 33.1846 6.03199C33.1846 6.17448 33.1055 6.38029 32.9472 6.64943C32.7414 7.02939 32.591 7.22729 32.496 7.24312ZM28.9101 15.816C27.9918 15.6102 27.5327 15.2461 27.5327 14.7236C27.5327 14.4703 27.8414 13.5758 28.4589 12.0401C28.633 11.7393 28.8626 11.304 29.1476 10.734C29.4484 10.1482 29.8204 9.43582 30.2637 8.59674C30.3428 8.47008 30.517 8.40676 30.7861 8.40676C31.0236 8.40676 31.2532 8.44633 31.4748 8.52549C31.7123 8.58882 31.8073 8.65215 31.7598 8.71548C29.67 11.676 28.6251 13.7262 28.6251 14.8661C28.6251 15.1986 28.7359 15.3648 28.9576 15.3648C29.385 15.3648 30.0579 15.064 30.9761 14.4624C32.0685 13.7183 32.9868 12.8238 33.7308 11.7789C33.8892 11.5256 34.0475 11.399 34.2058 11.399C34.2533 11.399 34.277 11.4227 34.277 11.4702C34.277 11.5494 34.2058 11.6998 34.0633 11.9214C33.3667 13.0138 32.401 13.9795 31.1661 14.8186C30.0579 15.5785 29.3059 15.911 28.9101 15.816Z" fill="black"/>
<path d="M24.935 19.4493C23.9218 19.4493 23.3439 18.7686 23.2014 17.407C23.1539 16.9479 23.1302 16.4888 23.1302 16.0297C23.1302 15.0164 23.2727 13.9399 23.5576 12.8C23.8584 11.6601 24.2463 10.4885 24.7213 9.28533C25.2121 8.08212 25.7582 6.87099 26.3599 5.65194C26.9773 4.43289 27.6026 3.24551 28.2359 2.08979C28.3467 1.91564 28.4021 1.76524 28.4021 1.63859C28.4021 1.52777 28.3626 1.47235 28.2834 1.47235C27.9826 1.47235 27.2464 1.98689 26.0749 3.01595C25.4416 3.57006 24.8479 4.16375 24.2938 4.79702C23.7397 5.41446 23.241 6.00024 22.7977 6.55435C22.1961 7.33011 21.6816 7.99504 21.2541 8.54915C20.8425 9.08743 20.5259 9.53072 20.3042 9.87902C20.0192 10.3065 19.6709 10.8685 19.2593 11.5651C18.8635 12.2459 18.3965 13.0533 17.8582 13.9874C17.8424 14.0032 17.6286 14.494 17.217 15.4597C16.9479 16.1088 16.7262 16.4334 16.5521 16.4334C16.2829 16.4017 16.0376 16.2909 15.8159 16.1009C15.6101 15.9268 15.523 15.7289 15.5547 15.5072C15.6338 14.8264 15.8476 13.9478 16.1959 12.8712C16.5442 11.7947 17.035 10.5123 17.6682 9.02411C18.8556 6.17439 19.4493 4.60704 19.4493 4.32207C19.4493 4.11626 19.291 4.01335 18.9743 4.01335C17.8186 4.01335 15.9109 5.58861 13.2512 8.73913C10.6073 11.8897 9.16658 14.1853 8.9291 15.626C8.89744 15.8476 8.77079 16.0297 8.54914 16.1721C8.3275 16.3146 8.09794 16.3859 7.86046 16.3859C7.60715 16.3859 7.4805 16.2988 7.4805 16.1247C7.4805 15.1273 8.25625 13.0137 9.80777 9.78403C10.9635 7.40927 11.6442 5.97649 11.8501 5.48571C12.1667 4.70995 12.42 4.00544 12.61 3.37217C12.8 2.72306 12.895 2.20062 12.895 1.80482C12.895 1.3457 12.7841 1.05281 12.5625 0.926158C12.3408 0.799504 11.9767 0.736178 11.4701 0.736178C9.90276 0.736178 8.06627 1.22696 5.96065 2.20853C5.32738 2.50933 4.73369 2.85763 4.17958 3.25343C3.62547 3.64922 3.10302 4.10043 2.61224 4.60704C1.56734 5.69944 1.0449 6.68892 1.0449 7.5755C1.0449 7.8763 1.08447 8.15336 1.16363 8.40667C1.24279 8.64414 1.40111 8.85787 1.63859 9.04785C1.82857 9.20617 2.10562 9.33283 2.46975 9.42782C2.84971 9.50698 3.26134 9.54655 3.70463 9.54655C4.40122 9.54655 5.11365 9.45156 5.84191 9.26158C5.87358 9.24575 5.92107 9.23783 5.9844 9.23783C6.04773 9.23783 6.07939 9.26158 6.07939 9.30908C6.07939 9.43573 5.95274 9.5703 5.69943 9.71279C5.44612 9.83944 5.12157 9.95026 4.72578 10.0453C4.34581 10.1402 3.9421 10.1877 3.51465 10.1877C2.70723 10.1877 1.9473 10.0532 1.23488 9.78403C0.411625 9.48323 0 8.86579 0 7.93171C0 7.21928 0.22956 6.46728 0.688681 5.67569C1.10031 4.97909 1.78899 4.25083 2.75472 3.49091C3.30883 3.06345 3.97377 2.6439 4.74952 2.23228C5.54111 1.80482 6.37228 1.42486 7.24302 1.09239C8.1296 0.759924 9.00035 0.4987 9.85526 0.30872C10.726 0.102907 11.5176 0 12.23 0C13.5916 0 14.2723 0.506617 14.2723 1.51985C14.2723 2.02647 14.0744 2.79431 13.6786 3.82337C13.2828 4.85244 12.7366 6.09523 12.04 7.55175C11.5493 8.58082 11.0743 9.60197 10.6152 10.6152C10.1561 11.6126 9.6732 12.6258 9.16658 13.6549C9.18241 13.6866 10.0057 12.4833 11.6363 10.0453C12.048 9.44365 12.5387 8.80246 13.1087 8.1217C13.6945 7.4251 14.3752 6.70475 15.151 5.96066C16.56 4.59913 17.6366 3.71255 18.3807 3.30092C18.8081 3.06345 19.2356 2.94471 19.663 2.94471C20.3121 2.94471 20.6367 3.27718 20.6367 3.94211C20.6367 4.17959 20.605 4.41706 20.5417 4.65454C20.1459 5.62028 19.6789 6.80766 19.1406 8.21669C18.6023 9.60988 17.9849 11.2326 17.2883 13.085C17.2566 13.1799 17.2408 13.2433 17.2408 13.2749C17.2408 13.2908 17.2487 13.2987 17.2645 13.2987C17.3437 13.2987 17.9611 12.3884 19.1168 10.5677C19.7659 9.52281 20.32 8.65998 20.7792 7.97921C21.2541 7.28261 21.6262 6.776 21.8953 6.45936C24.0959 3.7363 25.8928 1.86023 27.286 0.831167C27.856 0.40371 28.5605 0.189982 29.3996 0.189982C30.112 0.189982 30.4682 0.411626 30.4682 0.854916C30.4682 1.18738 30.2624 1.60692 29.8508 2.11354C28.3467 4.01335 27.009 6.5781 25.8374 9.80778C25.2991 11.3118 24.8717 12.61 24.555 13.7024C24.2542 14.779 24.1038 15.7764 24.1038 16.6946C24.1038 17.5178 24.183 18.072 24.3413 18.3569C24.5155 18.6419 24.7608 18.7844 25.0775 18.7844C25.2991 18.7844 25.5366 18.7448 25.7899 18.6657C26.059 18.6023 26.3519 18.5153 26.6686 18.4044C26.7319 18.3886 26.7794 18.3728 26.8111 18.3569C26.8586 18.3569 26.8981 18.3569 26.9298 18.3569C27.009 18.3569 27.0485 18.3807 27.0485 18.4282C27.0485 18.5865 26.819 18.7844 26.3599 19.0219C25.8691 19.3068 25.3941 19.4493 24.935 19.4493Z" fill="black"/>
</svg>
